<?xml version="1.0" encoding="UTF-8"?>
<svg id="Layer_1" data-name="Layer 1" xmlns="http://www.w3.org/2000/svg" viewBox="0 0 225.76 54.76">
  <defs>
    <style>
      .cls-1 {
        fill: #fff;
      }
    </style>
  </defs>
  <g>
    <polygon class="cls-1" points="31.37 28.92 34.45 33.88 53.75 2.76 49.3 0 31.37 28.92"/>
    <path class="cls-1" d="M58.57,33.68l-10.94-17.65-3.08,4.96,9.56,15.42c2.49,4.01,1.24,9.33-2.77,11.82-4.01,2.49-9.33,1.24-11.82-2.77l-18.23-29.4-3.08,4.96,16.87,27.22c4,6.46,12.56,8.47,19.02,4.46,6.46-4,8.47-12.56,4.46-19.02Z"/>
    <polygon class="cls-1" points="16.08 7.66 11.33 0 6.88 2.76 13.01 12.63 16.08 7.66"/>
    <path class="cls-1" d="M42.06,7.06c-1.02-1.65-2.34-3-3.85-4.05-.07-.05-.14-.09-.21-.14-.11-.07-.21-.14-.32-.21-.03-.02-.07-.05-.1-.07-.12-.07-.24-.14-.37-.21-.02-.01-.04-.02-.06-.03-1.98-1.13-4.14-1.72-6.3-1.8-.02,0-.05,0-.07,0-.17,0-.34,0-.5,0-.12,0-.23,0-.35,0-.08,0-.15,0-.23,0-2.13.09-4.25.67-6.21,1.78-.07.04-.13.08-.2.12-.09.05-.17.1-.26.15-.02.02-.05.03-.07.05-.16.1-.32.2-.48.31-.02.01-.04.02-.05.04-1.52,1.04-2.85,2.41-3.87,4.07L2.06,33.68c-4,6.46-2,15.02,4.46,19.02,6.46,4,15.02,2,19.02-4.46l3.72-5.99-3.08-4.96-5.07,8.18c-2.49,4.01-7.81,5.26-11.82,2.77-4.01-2.49-5.26-7.81-2.77-11.82L23.01,9.84c.68-1.1,1.63-2.05,2.8-2.78.74-.46,1.53-.79,2.34-1,.02,0,.04-.01.06-.02.1-.03.2-.05.31-.07.04,0,.09-.02.13-.03.08-.02.17-.03.25-.05.06,0,.11-.02.17-.03.08-.01.16-.02.23-.03.06,0,.12-.01.18-.02.08,0,.16-.01.24-.02.06,0,.11,0,.17-.01.09,0,.18,0,.27,0,.05,0,.09,0,.14,0,.1,0,.2,0,.3,0,.04,0,.07,0,.11,0,.11,0,.21.01.32.02.03,0,.06,0,.09,0,.11.01.22.02.33.04.03,0,.06,0,.08.01.1.01.21.03.31.05.04,0,.07.01.11.02.09.02.18.04.26.06.06.01.11.03.17.04.06.02.12.03.19.05.09.02.18.05.26.08.03,0,.05.02.08.03.66.21,1.31.5,1.92.88,1.16.72,2.1,1.68,2.77,2.78h0s1.75,2.82,1.75,2.82l3.1-5-.38-.61Z"/>
  </g>
  <g>
    <g>
      <path class="cls-1" d="M84.61,6.5h5.2l10.99,23.48h-5.9l-2.35-5.23h-10.85l-2.35,5.23h-5.75l10.99-23.48ZM90.54,20.22l-3.41-7.56-3.41,7.56h6.81Z"/>
      <path class="cls-1" d="M108.21,26.09l14.11-14.92h-13.67v-4.5h20.92v3.9l-14.11,14.92h14.11v4.5h-21.36v-3.9Z"/>
      <path class="cls-1" d="M140.23,19.99V6.67h5.64v13.19c0,3.83,2.05,5.76,5.53,5.76s5.53-1.87,5.53-5.6V6.67h5.64v13.16c0,7.06-4.36,10.52-11.25,10.52s-11.1-3.46-11.1-10.36Z"/>
      <path class="cls-1" d="M174.04,6.67h11.73c3.26,0,5.75.8,7.47,2.36,1.47,1.33,2.2,3.1,2.2,5.33v.07c0,3.76-2.23,6.13-5.5,7.23l6.27,8.33h-6.6l-5.5-7.46h-4.43v7.46h-5.64V6.67ZM185.39,17.99c2.78,0,4.32-1.3,4.32-3.3v-.07c0-2.23-1.65-3.33-4.43-3.33h-5.61v6.69h5.72Z"/>
      <path class="cls-1" d="M206.23,6.67h19.35v4.56h-13.74v4.73h12.09v4.56h-12.09v4.9h13.92v4.56h-19.53V6.67Z"/>
    </g>
    <g>
      <path class="cls-1" d="M87.12,38.3h1.31l3.69,8.36,3.71-8.36h1.26l-4.47,9.77h-1.04l-4.47-9.77Z"/>
      <path class="cls-1" d="M105.27,38.3h7.51v1h-6.33v3.31h5.67v1h-5.67v3.4h6.41v1h-7.58v-9.7Z"/>
      <path class="cls-1" d="M121.34,38.3h1.1l6.54,7.78v-7.78h1.14v9.7h-.93l-6.71-7.96v7.96h-1.14v-9.7Z"/>
      <path class="cls-1" d="M141.89,39.31h-3.5v-1.01h8.17v1.01h-3.5v8.69h-1.17v-8.69Z"/>
      <path class="cls-1" d="M154.67,43.94v-5.64h1.17v5.57c0,2.11,1.17,3.27,3.17,3.27s3.13-1.08,3.13-3.2v-5.64h1.17v5.56c0,2.84-1.74,4.3-4.33,4.3s-4.32-1.47-4.32-4.21Z"/>
      <path class="cls-1" d="M172.22,38.3h4.47c1.29,0,2.3.36,2.95.97.52.49.8,1.14.8,1.91v.03c0,1.61-1.19,2.57-2.82,2.83l3.19,3.97h-1.44l-3.01-3.77h-2.97v3.77h-1.17v-9.7ZM176.58,43.25c1.54,0,2.67-.75,2.67-2v-.03c0-1.21-.98-1.91-2.66-1.91h-3.2v3.94h3.19Z"/>
      <path class="cls-1" d="M189.08,38.3h7.51v1h-6.33v3.31h5.67v1h-5.67v3.4h6.41v1h-7.58v-9.7Z"/>
      <path class="cls-1" d="M204.47,46.59l.73-.8c1.08.93,2.12,1.37,3.56,1.37s2.31-.69,2.31-1.65v-.03c0-.9-.52-1.4-2.7-1.84-2.39-.49-3.49-1.21-3.49-2.8v-.03c0-1.51,1.44-2.65,3.41-2.65,1.53,0,2.58.4,3.65,1.19l-.68.85c-.96-.73-1.93-1.05-3-1.05-1.36,0-2.21.68-2.21,1.57v.03c0,.92.52,1.44,2.82,1.89,2.31.48,3.38,1.26,3.38,2.74v.03c0,1.66-1.48,2.74-3.55,2.74-1.66,0-3-.5-4.24-1.55Z"/>
    </g>
  </g>
</svg>