<svg xmlns="http://www.w3.org/2000/svg" width="231.609" height="56.191" viewBox="0 0 231.609 56.191">
  <g id="azure_logo_blue" transform="translate(-0.004)">
    <g id="Group_35" data-name="Group 35" transform="translate(0.004)">
      <path id="Path_53" data-name="Path 53" d="M47.26,29.666l3.159,5.093L70.22,2.826,65.658,0Z" transform="translate(-15.084)" fill="#07a9e0"/>
      <path id="Path_54" data-name="Path 54" d="M68.835,42.265,57.607,24.16l-3.159,5.093,9.812,15.824a8.808,8.808,0,0,1-14.973,9.281l-18.7-30.163L27.43,29.287,44.738,57.21a14.173,14.173,0,1,0,24.09-14.939Z" transform="translate(-8.756 -7.71)" fill="#07a9e0"/>
      <path id="Path_55" data-name="Path 55" d="M19.807,7.864,14.925,0,10.37,2.826l6.285,10.132Z" transform="translate(-3.312)" fill="#07a9e0"/>
      <path id="Path_56" data-name="Path 56" d="M43.156,7.51a14.054,14.054,0,0,0-3.949-4.153c-.068-.048-.143-.1-.211-.143-.109-.075-.218-.143-.327-.211-.034-.02-.068-.048-.109-.068-.123-.075-.252-.15-.374-.218a.276.276,0,0,0-.061-.034A14.016,14.016,0,0,0,31.663.837h-.075c-.17,0-.347-.007-.517-.007h-.354c-.082,0-.157,0-.238.007A14,14,0,0,0,24.1,2.662l-.2.123c-.089.054-.177.1-.266.157-.027.014-.048.034-.075.048-.163.1-.327.211-.49.32a.239.239,0,0,1-.054.034,14.051,14.051,0,0,0-3.976,4.174L2.119,34.82a14.173,14.173,0,1,0,24.09,14.939l3.813-6.148-3.159-5.093-5.2,8.389A8.808,8.808,0,0,1,6.688,37.625l16.92-27.263a8.9,8.9,0,0,1,5.27-3.881c.02,0,.041-.014.061-.014.1-.027.211-.048.313-.075.041-.007.089-.02.129-.027.089-.02.177-.034.259-.048.054-.007.116-.02.17-.027.082-.014.157-.02.238-.034l.184-.02.245-.02a1.433,1.433,0,0,0,.17-.014c.089,0,.184-.007.272-.007h.558c.109,0,.218.014.327.02a.388.388,0,0,1,.089.007c.116.014.225.02.334.041a.469.469,0,0,1,.089.014c.109.014.211.034.32.048a.688.688,0,0,1,.116.02c.089.02.177.034.272.054l.177.041c.061.014.129.034.191.048.089.027.184.048.272.075.027.007.054.02.082.027a9.041,9.041,0,0,1,1.975.906,8.675,8.675,0,0,1,2.839,2.853h0l1.791,2.887,3.18-5.127-.388-.62Z" transform="translate(-0.004 -0.265)" fill="#07a9e0"/>
    </g>
    <g id="Group_38" data-name="Group 38" transform="translate(75.526 6.666)">
      <g id="Group_36" data-name="Group 36">
        <path id="Path_57" data-name="Path 57" d="M122.2,9.79h5.338l11.276,24.09h-6.053l-2.4-5.365H119.227l-2.4,5.365h-5.9L122.2,9.79Zm6.087,14.081-3.493-7.755L121.3,23.871h6.993Z" transform="translate(-110.92 -9.79)" fill="#07a9e0"/>
        <path id="Path_58" data-name="Path 58" d="M163.047,29.966,177.516,14.66H163.5V10.05h21.462v4L170.489,29.353h14.469v4.61H163.04v-4Z" transform="translate(-127.552 -9.873)" fill="#07a9e0"/>
        <path id="Path_59" data-name="Path 59" d="M211.28,23.715V10.05h5.788V23.579c0,3.929,2.1,5.91,5.679,5.91s5.679-1.913,5.679-5.74V10.05h5.788v13.5c0,7.245-4.473,10.8-11.541,10.8S211.28,30.79,211.28,23.715Z" transform="translate(-142.946 -9.873)" fill="#07a9e0"/>
        <path id="Path_60" data-name="Path 60" d="M262.22,10.05h12.031c3.343,0,5.9.817,7.667,2.424a7.013,7.013,0,0,1,2.254,5.468v.068c0,3.861-2.295,6.285-5.638,7.415l6.428,8.545h-6.768l-5.638-7.653h-4.548V33.97H262.22V10.05Zm11.657,11.616c2.86,0,4.433-1.335,4.433-3.384v-.068c0-2.288-1.689-3.418-4.548-3.418h-5.754v6.87h5.862Z" transform="translate(-159.201 -9.873)" fill="#07a9e0"/>
        <path id="Path_61" data-name="Path 61" d="M310.73,10.05h19.848v4.685H316.484v4.855h12.406v4.685H316.484V29.3h14.285v4.685H310.73Z" transform="translate(-174.681 -9.873)" fill="#07a9e0"/>
      </g>
      <g id="Group_37" data-name="Group 37" transform="translate(13.849 32.485)">
        <path id="Path_62" data-name="Path 62" d="M131.26,57.71H132.6l3.793,8.572L140.2,57.71h1.294l-4.582,10.03h-1.062l-4.582-10.03Z" transform="translate(-131.26 -57.567)" fill="#07a9e0"/>
        <path id="Path_63" data-name="Path 63" d="M158.61,57.707h7.7v1.021h-6.5v3.4h5.815v1.021h-5.815v3.486h6.577v1.021h-7.776V57.7Z" transform="translate(-139.988 -57.564)" fill="#07a9e0"/>
        <path id="Path_64" data-name="Path 64" d="M182.82,57.71h1.123l6.714,7.98V57.71h1.171v9.955h-.96L183.991,59.5v8.164H182.82V57.71Z" transform="translate(-147.713 -57.567)" fill="#07a9e0"/>
        <path id="Path_65" data-name="Path 65" d="M212.105,58.745h-3.6V57.71H216.9v1.035h-3.6v8.92H212.1v-8.92Z" transform="translate(-155.911 -57.567)" fill="#07a9e0"/>
        <path id="Path_66" data-name="Path 66" d="M233.04,63.5V57.71h1.205v5.719a3,3,0,0,0,3.255,3.357c2.049,0,3.214-1.11,3.214-3.282V57.717h1.205v5.706c0,2.914-1.784,4.412-4.446,4.412s-4.426-1.5-4.426-4.324Z" transform="translate(-163.739 -57.567)" fill="#07a9e0"/>
        <path id="Path_67" data-name="Path 67" d="M259.49,57.71h4.582a4.4,4.4,0,0,1,3.03.994,2.6,2.6,0,0,1,.824,1.961v.027c0,1.648-1.219,2.628-2.894,2.9l3.275,4.072H266.83L263.739,63.8H260.7v3.867H259.49Zm4.473,5.073c1.58,0,2.737-.769,2.737-2.049v-.027c0-1.239-1.008-1.961-2.724-1.961h-3.289v4.038Z" transform="translate(-172.179 -57.567)" fill="#07a9e0"/>
        <path id="Path_68" data-name="Path 68" d="M284.89,57.707h7.7v1.021h-6.5v3.4h5.815v1.021H286.1v3.486h6.577v1.021H284.9V57.7Z" transform="translate(-180.285 -57.564)" fill="#07a9e0"/>
        <path id="Path_69" data-name="Path 69" d="M308.07,66.147l.749-.824a5.2,5.2,0,0,0,3.65,1.409c1.471,0,2.376-.708,2.376-1.7V65.01c0-.926-.531-1.437-2.771-1.893-2.451-.5-3.575-1.239-3.575-2.873v-.027c0-1.552,1.478-2.717,3.5-2.717a5.848,5.848,0,0,1,3.745,1.219l-.7.865a4.911,4.911,0,0,0-3.078-1.083c-1.4,0-2.267.695-2.267,1.607v.027c0,.94.531,1.478,2.894,1.934,2.376.5,3.473,1.294,3.473,2.819v.027c0,1.709-1.525,2.819-3.636,2.819a6.366,6.366,0,0,1-4.351-1.593Z" transform="translate(-187.682 -57.5)" fill="#07a9e0"/>
      </g>
    </g>
  </g>
</svg>
