<svg xmlns="http://www.w3.org/2000/svg" width="231.305" height="56.117" viewBox="0 0 231.305 56.117">
  <g id="azure_logo_grey" transform="translate(-0.004)">
    <g id="Group_39" data-name="Group 39" transform="translate(0.004)">
      <path id="Path_70" data-name="Path 70" d="M47.26,29.627l3.155,5.086L70.189,2.822,65.633,0Z" transform="translate(-15.126)" fill="#93948d"/>
      <path id="Path_71" data-name="Path 71" d="M68.781,42.241,57.567,24.16l-3.155,5.086,9.8,15.8a8.8,8.8,0,0,1-14.953,9.268L30.585,24.194,27.43,29.28,44.716,57.167A14.154,14.154,0,0,0,68.774,42.248Z" transform="translate(-8.78 -7.731)" fill="#93948d"/>
      <path id="Path_72" data-name="Path 72" d="M19.795,7.854,14.919,0,10.37,2.822,16.646,12.94Z" transform="translate(-3.321)" fill="#93948d"/>
      <path id="Path_73" data-name="Path 73" d="M43.1,7.5a14.036,14.036,0,0,0-3.944-4.148c-.068-.048-.143-.1-.211-.143-.109-.075-.218-.143-.326-.211-.034-.02-.068-.048-.109-.068-.122-.075-.252-.15-.374-.218a.276.276,0,0,0-.061-.034A14,14,0,0,0,31.621.837h-.075c-.17,0-.347-.007-.517-.007h-.354c-.082,0-.156,0-.238.007a13.978,13.978,0,0,0-6.365,1.822l-.2.122c-.088.054-.177.1-.265.156-.027.014-.048.034-.075.048-.163.1-.326.211-.49.32a.238.238,0,0,1-.054.034,14.033,14.033,0,0,0-3.971,4.168L2.116,34.775A14.154,14.154,0,1,0,26.174,49.695l3.808-6.14-3.155-5.086-5.2,8.378A8.8,8.8,0,0,1,6.679,37.577l16.9-27.227A8.887,8.887,0,0,1,28.84,6.474c.02,0,.041-.014.061-.014.1-.027.211-.048.313-.075.041-.007.088-.02.129-.027.088-.02.177-.034.258-.048.054-.007.116-.02.17-.027.082-.014.156-.02.238-.034l.184-.02.245-.02a1.431,1.431,0,0,0,.17-.014c.088,0,.184-.007.272-.007h.558c.109,0,.218.014.326.02a.388.388,0,0,1,.088.007c.116.014.224.02.333.041a.468.468,0,0,1,.088.014c.109.014.211.034.32.048a.687.687,0,0,1,.116.02c.088.02.177.034.272.054l.177.041c.061.014.129.034.19.048.088.027.184.048.272.075.027.007.054.02.082.027a9.03,9.03,0,0,1,1.972.9,8.664,8.664,0,0,1,2.836,2.849h0L40.3,13.22,43.473,8.1l-.388-.619Z" transform="translate(-0.004 -0.266)" fill="#93948d"/>
    </g>
    <g id="Group_42" data-name="Group 42" transform="translate(75.426 6.657)">
      <g id="Group_40" data-name="Group 40">
        <path id="Path_74" data-name="Path 74" d="M122.181,9.79h5.331l11.261,24.058h-6.045l-2.4-5.358H119.216l-2.4,5.358h-5.9L122.181,9.79Zm6.079,14.062-3.488-7.745-3.488,7.745h6.984Z" transform="translate(-110.92 -9.79)" fill="#93948d"/>
        <path id="Path_75" data-name="Path 75" d="M163.047,29.94,177.5,14.654h-14v-4.6h21.433v3.992l-14.45,15.286h14.45v4.6H163.04V29.94Z" transform="translate(-127.599 -9.873)" fill="#93948d"/>
        <path id="Path_76" data-name="Path 76" d="M211.28,23.7V10.05h5.78V23.562c0,3.924,2.1,5.9,5.671,5.9s5.671-1.911,5.671-5.732V10.05h5.78V23.528c0,7.235-4.468,10.785-11.526,10.785S211.28,30.763,211.28,23.7Z" transform="translate(-143.036 -9.873)" fill="#93948d"/>
        <path id="Path_77" data-name="Path 77" d="M262.22,10.05h12.016c3.339,0,5.9.816,7.657,2.421a7,7,0,0,1,2.251,5.46V18c0,3.856-2.292,6.276-5.63,7.405l6.419,8.534h-6.759l-5.63-7.643H268v7.643h-5.78V10.05Zm11.642,11.6c2.856,0,4.427-1.333,4.427-3.38V18.2c0-2.285-1.686-3.414-4.542-3.414H268v6.861h5.855Z" transform="translate(-159.337 -9.873)" fill="#93948d"/>
        <path id="Path_78" data-name="Path 78" d="M310.73,10.05h19.822v4.678H316.476v4.848h12.39v4.678h-12.39v5.018h14.266v4.678H310.73Z" transform="translate(-174.86 -9.873)" fill="#93948d"/>
      </g>
      <g id="Group_41" data-name="Group 41" transform="translate(13.831 32.443)">
        <path id="Path_79" data-name="Path 79" d="M131.26,57.71h1.34l3.788,8.561,3.8-8.561h1.292L136.9,67.726h-1.061L131.267,57.71Z" transform="translate(-131.26 -57.567)" fill="#93948d"/>
        <path id="Path_80" data-name="Path 80" d="M158.61,57.707H166.3v1.02h-6.487V62.12h5.807v1.02h-5.807v3.482h6.569v1.02h-7.766V57.7Z" transform="translate(-140.012 -57.564)" fill="#93948d"/>
        <path id="Path_81" data-name="Path 81" d="M182.82,57.71h1.122l6.7,7.97V57.71h1.17v9.942h-.959L183.99,59.5v8.153h-1.17V57.71Z" transform="translate(-147.759 -57.567)" fill="#93948d"/>
        <path id="Path_82" data-name="Path 82" d="M212.1,58.744h-3.59V57.71h8.378v1.034H213.3v8.908h-1.2V58.744Z" transform="translate(-155.98 -57.567)" fill="#93948d"/>
        <path id="Path_83" data-name="Path 83" d="M233.04,63.49V57.71h1.2v5.712a3,3,0,0,0,3.25,3.352c2.047,0,3.21-1.108,3.21-3.278v-5.78h1.2v5.7c0,2.91-1.782,4.406-4.44,4.406s-4.42-1.5-4.42-4.318Z" transform="translate(-163.83 -57.567)" fill="#93948d"/>
        <path id="Path_84" data-name="Path 84" d="M259.49,57.71h4.576a4.392,4.392,0,0,1,3.026.993,2.6,2.6,0,0,1,.823,1.958v.027c0,1.646-1.217,2.625-2.89,2.9l3.271,4.066H266.82l-3.087-3.862h-3.04v3.862h-1.2V57.71Zm4.468,5.066c1.578,0,2.734-.768,2.734-2.047V60.7c0-1.238-1.006-1.958-2.72-1.958h-3.284v4.032Z" transform="translate(-172.294 -57.567)" fill="#93948d"/>
        <path id="Path_85" data-name="Path 85" d="M284.89,57.707h7.691v1.02h-6.487V62.12H291.9v1.02h-5.807v3.482h6.569v1.02H284.9V57.7Z" transform="translate(-180.422 -57.564)" fill="#93948d"/>
        <path id="Path_86" data-name="Path 86" d="M308.07,66.136l.748-.823a5.19,5.19,0,0,0,3.645,1.408c1.469,0,2.373-.707,2.373-1.693V65c0-.925-.53-1.435-2.768-1.89-2.448-.5-3.57-1.238-3.57-2.87v-.027c0-1.55,1.476-2.713,3.5-2.713a5.84,5.84,0,0,1,3.74,1.217l-.7.864A4.9,4.9,0,0,0,311.96,58.5c-1.4,0-2.264.694-2.264,1.6v.027c0,.938.53,1.476,2.89,1.931,2.373.5,3.468,1.292,3.468,2.815v.027c0,1.707-1.523,2.815-3.631,2.815a6.357,6.357,0,0,1-4.345-1.591Z" transform="translate(-187.84 -57.5)" fill="#93948d"/>
      </g>
    </g>
  </g>
</svg>
